<?xml version="1.0" encoding="UTF-8"?>
<svg id="Layer_1" data-name="Layer 1" xmlns="http://www.w3.org/2000/svg" viewBox="0 0 432 432">
  <defs>
    <style>
      .cls-1 {
        fill: #ef4851;
      }

      .cls-2 {
        fill: #231f20;
      }

      .cls-3 {
        fill: #ef4951;
      }
    </style>
  </defs>
  <g>
    <path class="cls-1" d="M232.83,111.64s25.54,5.22,44.49,48.33c18.95,43.11,42.01,137.03-11.53,159.27-53.55,22.24-84.85,17.3-111.21,0s-23.89-65.9-16.48-78.26c7.41-12.36,17.3-81.56,23.89-95.56,6.59-14,17.3-46.13,70.85-33.78Z"/>
    <path class="cls-2" d="M232.93,111.2c12.91,3.88,22.93,13.55,31.34,23.68,8.3,10.37,14.76,22.33,19.98,34.49,19.05,42.35,35.95,129.98-19.27,151.66-28.27,11.27-60,20.76-90.19,11.61-2.01-.64-4.04-1.4-6.05-2.08-2.62-1.11-5.64-2.34-8.14-3.7-4.6-2.35-9.33-4.99-13.23-8.4-13.23-12.05-17.92-30.5-18.72-47.71-.21-10.83.22-22.63,5.49-32.52,3.68-8.17,5.21-17.04,7.39-25.86,3.64-15.91,6.8-32.17,10.83-48.11,2.05-7.35,3.66-14.77,7.31-21.69,4.11-8.34,8.76-16.65,15.92-22.9,15.58-14.06,38.24-13.01,57.36-8.46h0ZM232.74,112.08c-27.44-6.27-52.68-2.02-64.27,26.48-1.24,2.8-2.55,6.15-3.67,8.98-2.88,8.52-4.41,19.22-6.26,28.17-2.47,12.87-4.85,25.8-7.64,38.75-2.26,9.45-3.99,19.56-8.41,28.46-1.57,2.65-2.54,5.89-3.22,9.03-3.95,20.08-1.51,48.26,14.92,62.34,27.21,20.69,57.29,21.19,88.98,11.63,8.54-2.61,17.08-5.58,25.13-9.46,12.32-5.97,20.47-18.1,23.93-31.1,3.36-12.36,3.55-25.36,2.74-38.1-.93-12.87-3.05-25.65-5.82-38.26-7.13-29.71-15.77-66.58-39.64-87.31-4.88-4.16-10.57-7.9-16.78-9.61h0Z"/>
  </g>
  <g>
    <circle class="cls-3" cx="175.79" cy="202.47" r="4.75"/>
    <path class="cls-2" d="M180.64,202.47c-.22,7.55-11.09,7.72-11.4,0,.32-7.71,11.17-7.54,11.4,0h0ZM180.44,202.47c-.21-6.07-9.04-6.09-9.2,0,.17,6.09,8.99,6.07,9.2,0h0Z"/>
  </g>
  <g>
    <circle class="cls-3" cx="255.84" cy="261.36" r="4.75"/>
    <path class="cls-2" d="M260.74,261.36c.15,4.89-5.82,8.31-9.93,5.03-3.19-2.31-3.18-7.74,0-10.04,4.08-3.24,10.05.08,9.92,5.02h0ZM260.44,261.36c-.22-5.97-8.9-5.99-9.05,0,.15,5.99,8.83,5.97,9.05,0h0Z"/>
  </g>
  <g>
    <circle class="cls-3" cx="272.22" cy="282.97" r="4.75"/>
    <path class="cls-2" d="M267.67,281.15c1.71-4.61,8.43-5.57,11.08-1,2.11,3.33.09,8.37-3.72,9.33-4.99,1.5-9.31-3.79-7.36-8.33h0ZM267.95,281.26c-2,5.63,6.05,8.86,8.41,3.35,2.08-5.62-5.99-8.81-8.41-3.35h0Z"/>
  </g>
  <g>
    <circle class="cls-3" cx="238.14" cy="273.47" r="4.75"/>
    <path class="cls-2" d="M243.04,273.47c.15,4.89-5.82,8.31-9.93,5.03-3.19-2.31-3.18-7.74,0-10.04,4.08-3.24,10.05.08,9.92,5.02h0ZM242.74,273.47c-.22-5.97-8.9-5.99-9.05,0,.15,5.99,8.83,5.97,9.05,0h0Z"/>
  </g>
  <path class="cls-2" d="M191.89,179.97c4.76-5.94,11.13-10.67,18.45-12.99,6.37-1.88,13.59-1.8,19.77.84,3.6,1.71,6.73,4.35,9.23,7.44,1.61,2.05,2.95,4.27,3.92,6.69l-.46.39c-3.69-2.15-7.1-4.56-10.82-6.58-4.45-2.2-8.88-4.8-13.93-5.24-9.48-.7-18.58,3.76-25.72,9.86,0,0-.45-.4-.45-.4h0Z"/>
  <g>
    <circle class="cls-2" cx="202.49" cy="152.4" r="5"/>
    <path class="cls-2" d="M207.64,152.4c.03,9.2-9.34,7.45-10.98,0-.72-3.38,2.4-6.73,5.82-6.61,3.73.01,5.34,3.46,5.15,6.61h0ZM207.34,152.4c.04-1.9-1.87-3.04-3.5-3.28-2.42-.59-4.88.73-5.54,3.28-.66,2.57,1.74,4.47,4.18,3.75,1.93-.41,4.91-1.2,4.85-3.75h0Z"/>
  </g>
  <g>
    <circle class="cls-2" cx="231.49" cy="152.4" r="5"/>
    <path class="cls-2" d="M236.64,152.4c.03,9.2-9.34,7.45-10.98,0-.72-3.38,2.4-6.73,5.82-6.61,3.73.01,5.34,3.46,5.15,6.61h0ZM236.34,152.4c.04-1.9-1.87-3.04-3.5-3.28-2.42-.59-4.88.73-5.54,3.28-.66,2.57,1.74,4.47,4.18,3.75,1.93-.41,4.91-1.2,4.85-3.75h0Z"/>
  </g>
  <path class="cls-2" d="M172.54,146.43c13.82-1.2,28.26-1.42,42.15-1.5,13.9.07,28.32.29,42.15,1.5-13.82,1.21-28.26,1.43-42.15,1.5-13.9-.08-28.32-.3-42.15-1.5h0Z"/>
</svg>