<?xml version="1.0" encoding="UTF-8"?>
<svg id="Layer_1" data-name="Layer 1" xmlns="http://www.w3.org/2000/svg" viewBox="0 0 432 432">
  <defs>
    <style>
      .cls-1 {
        fill: #231f20;
      }

      .cls-2 {
        fill: #76aa55;
      }
    </style>
  </defs>
  <g>
    <path class="cls-2" d="M173.87,136.12s26.53-28,57.48-14c30.95,14,68.54,51.59,73.7,92.86,5.16,41.27-8.11,79.59-19.9,97.28-11.79,17.69-36.85,40.53-95.8,17.69,0,0-44.22-30.95-46.43-71.48-2.21-40.53,30.95-122.33,30.95-122.33Z"/>
    <path class="cls-1" d="M173.49,135.88c14.02-15.98,37.08-25.61,57.73-17.22,29.91,12.4,57.81,39.78,70,69.86,3.58,8.82,5.92,18.22,6.54,27.73,2.23,30.85-4.22,66.11-18.8,93.41-15.02,27.32-40.56,37.16-70.71,32.59-10.61-1.6-21.02-4.61-30.99-8.34-4.09-2.83-7.69-5.81-11.38-9.03-18.99-16.81-35.94-39.29-37.48-65.52-.35-7.01.31-14.07,1.33-20.91,2.7-18.02,7.85-35.35,13.63-52.51,5.85-17,12.48-33.77,20.12-50.05h0ZM174.25,136.36c-5.41,16.79-10.84,34.24-15.38,51.24-5.46,21.24-11.06,42.85-11.53,64.85-.53,26.11,16.43,48.47,34.68,65.61,3.11,2.86,6.55,5.77,9.87,8.26,0,0-.94-.5-.94-.5,10.21,4.1,20.68,7.33,31.51,8.97,32.15,5.05,55.76-7.95,69-37.69,11.38-24.88,15.32-53.21,11.18-80.26-1.79-12.81-6.95-24.91-13.52-35.99-14.5-23.62-35.25-44.23-60.32-56.37-18.36-8.68-39.91-.62-54.56,11.89h0Z"/>
  </g>
  <path class="cls-1" d="M180.14,214.95c.17,5.25-6.46,8.58-10.55,4.98-3.02-2.45-3.01-7.51,0-9.95,4.1-3.59,10.71-.28,10.55,4.97h0ZM179.94,214.95c-.24-7.03-10.46-7.04-10.65,0,.2,7.05,10.41,7.03,10.65,0h0Z"/>
  <path class="cls-1" d="M174.67,234.16c.17,5.25-6.46,8.58-10.55,4.98-3.02-2.45-3.01-7.51,0-9.95,4.1-3.59,10.71-.28,10.55,4.97h0ZM174.47,234.16c-.24-7.03-10.46-7.04-10.65,0,.2,7.05,10.41,7.03,10.65,0h0Z"/>
  <path class="cls-1" d="M207.66,295.73c.12,5.54-6.57,9.25-11.16,5.54-3.47-2.58-3.46-8.49,0-11.07,4.52-3.68,11.29-.03,11.15,5.53h0ZM207.36,295.73c-.25-6.93-10.32-6.95-10.5,0,.18,6.95,10.25,6.92,10.5,0h0Z"/>
  <path class="cls-1" d="M215.69,318.55c1.94-5.19,9.52-6.16,12.42-1.01,2.27,3.68.08,9.17-4.1,10.28-5.56,1.75-10.5-4.15-8.32-9.26h0ZM215.97,318.67c-2.33,6.53,7.02,10.28,9.76,3.89,2.4-6.52-6.96-10.22-9.76-3.89h0Z"/>
  <g>
    <path class="cls-1" d="M259.56,170.74c-4.3,17.71-22.32,71.04-76.32,23.31-1.85-1.63-1.21-4.67,1.15-5.39l71.21-21.68c2.34-.71,4.54,1.39,3.96,3.76Z"/>
    <path class="cls-1" d="M259.85,170.82c-3.16,11.82-5.56,24.51-13.83,34.1-16.54,18.91-39.66,7.57-56.9-3.91-2.16-1.36-4.2-2.95-6.25-4.45,0,0-.62-.46-.62-.46l-.31-.23c-1.53-1.11-2.37-3.15-2.1-5.05.19-1.73,1.32-3.45,2.99-4.26.99-.44,1.26-.48,1.78-.67l1.43-.49,5.73-1.93c11.45-3.88,22.95-7.6,34.66-10.62,7.81-2.04,15.84-3.31,23.73-5.04,2.01-.38,3.94-.99,5.98-1.36,2.35-.26,4.37,2.13,3.74,4.38h0ZM259.27,170.67c.48-1.81-1.21-3.74-3.05-3.37-1.84.53-3.8,1.36-5.6,2.05-7.51,2.95-14.89,6.38-22.51,9.03-13.27,4.68-26.94,8.4-40.53,12.08,0,0-2.54.67-2.54.67-.54.15-.69,1-.15,1.39,0,0,.27.26.27.26,9.98,9.92,22.83,20.44,37.76,18.93,17.66-1.63,32.55-24.87,36.37-41.04h0Z"/>
  </g>
  <g>
    <line class="cls-1" x1="182.17" y1="170.34" x2="207.11" y2="161.86"/>
    <path class="cls-1" d="M182.07,170.05c2.78-1.66,5.92-3.3,8.81-4.78,1.79-.84,4.25-2.03,5.92-3.04,3.15-1.63,6.76-1.71,10.21-.65,0,0,.19.57.19.57-1.43,2.13-3.25,3.52-5.37,4.68-1.96,1.12-4.28,1.09-6.43,1.55,0,0-3.25.68-3.25.68-3.19.58-6.68,1.2-9.9,1.57,0,0-.19-.57-.19-.57h0Z"/>
  </g>
  <g>
    <line class="cls-1" x1="243.44" y1="151.15" x2="218.26" y2="158.89"/>
    <path class="cls-1" d="M243.53,151.44c-2.82,1.58-6.02,3.13-8.94,4.52-1.81.79-4.3,1.91-6.01,2.87-3.2,1.53-6.81,1.51-10.23.35,0,0-.18-.57-.18-.57,1.49-2.09,3.35-3.42,5.5-4.52,1.99-1.07,4.31-.96,6.47-1.36,0,0,3.27-.58,3.27-.58,3.2-.49,6.71-1,9.94-1.28,0,0,.18.57.18.57h0Z"/>
  </g>
</svg>