<?xml version="1.0" encoding="UTF-8"?>
<svg id="Layer_1" data-name="Layer 1" xmlns="http://www.w3.org/2000/svg" viewBox="0 0 432 432">
  <defs>
    <style>
      .cls-1 {
        fill: #231f20;
      }

      .cls-2 {
        fill: #f1da5a;
      }
    </style>
  </defs>
  <g>
    <path class="cls-2" d="M252.77,284.07c25.35-27.32,37.05-64.67,42.69-101.51,2.88-18.79,3.51-40.44-9.74-54.07-7.24-7.44-17.54-11.14-27.78-12.9-8.87-1.52-18.23-1.72-26.64,1.5-8.83,3.38-15.82,10.19-23,16.34-12.46,10.66-26.24,19.79-40.92,27.1-12.36,6.16-25.49,11.11-36.51,19.43-12.73,9.61-22.1,23.57-26.18,38.98-3.76,14.19-3.08,29.25-.26,43.65,2.39,12.19,6.44,24.35,14.18,34.07,13.85,17.39,45.82,21.97,67.03,20.56,25.44-1.69,49.93-14.6,67.14-33.15Z"/>
    <path class="cls-1" d="M252.44,283.77c26.87-28.75,37.64-68.39,42.06-106.6,1.97-17.94,1.05-40.01-15.35-51.06-10.29-6.79-23.53-9.22-35.64-8.72-13.15.48-22.45,8.73-31.89,17.29-4.93,4.36-10.1,8.5-15.45,12.38-10.65,7.75-22.22,14.45-34.12,20.04-11.44,5.5-23.19,10.7-32.55,19.16-19,16.67-25.59,42.63-21.83,67.2,1.67,12.16,4.56,24.66,10.81,35.2,9.31,16.54,28.95,22.17,46.64,24.96,32.95,5.35,64.33-5.73,87.31-29.85h0ZM253.1,284.38c-27.79,30.54-68.37,42.65-108.49,32.16-13.82-3.66-26.23-10.57-33.81-23.2-7.25-11.8-10.56-25.21-12.42-38.69-4.02-27.86,4.02-55.84,25.85-74.4,10.22-8.89,22.75-14.21,34.76-19.68,11.73-5.27,22.87-11.46,33.38-18.83,5.24-3.67,10.3-7.58,15.18-11.74,10.36-9.12,20.83-17.76,35.61-18.11,13.42-.33,27.6,2.62,38.74,10.26,17.76,12.28,18.87,35.99,15.93,55.44-6,38.35-18.25,77.51-44.75,106.8h0Z"/>
  </g>
  <path class="cls-1" d="M164.26,198.47c-.22,7.55-11.09,7.72-11.4,0,.32-7.71,11.17-7.54,11.4,0h0ZM164.06,198.47c-.21-6.07-9.04-6.09-9.2,0,.17,6.09,8.99,6.07,9.2,0h0Z"/>
  <path class="cls-1" d="M181.31,179.41c-.22,7.55-11.09,7.72-11.4,0,.32-7.71,11.17-7.54,11.4,0h0ZM181.11,179.41c-.21-6.07-9.04-6.09-9.2,0,.17,6.09,8.99,6.07,9.2,0h0Z"/>
  <path class="cls-1" d="M188.14,278.97c.15,4.89-5.82,8.31-9.93,5.03-3.19-2.31-3.18-7.74,0-10.04,4.08-3.24,10.05.08,9.92,5.02h0ZM187.84,278.97c-.22-5.97-8.9-5.99-9.05,0,.15,5.99,8.83,5.97,9.05,0h0Z"/>
  <path class="cls-1" d="M195.07,298.76c1.71-4.61,8.43-5.57,11.08-1,2.11,3.33.09,8.37-3.72,9.33-4.99,1.5-9.31-3.79-7.36-8.33h0ZM195.35,298.87c-2,5.63,6.05,8.86,8.41,3.35,2.08-5.62-5.99-8.81-8.41-3.35h0Z"/>
  <path class="cls-1" d="M170.44,291.07c.15,4.89-5.82,8.31-9.93,5.03-3.19-2.31-3.18-7.74,0-10.04,4.08-3.24,10.05.08,9.92,5.02h0ZM170.14,291.07c-.22-5.97-8.9-5.99-9.05,0,.15,5.99,8.83,5.97,9.05,0h0Z"/>
  <g>
    <path class="cls-2" d="M284.04,163.45s-30.4,62.46-65.9,0"/>
    <path class="cls-1" d="M284.44,163.65c-4.54,10.7-11.06,21-21.17,27.34-7.24,4.57-17.22,4.96-25.05,1.34-6.81-3.14-11.62-8.65-15.22-14.93-2.49-4.26-4.24-8.91-5.26-13.73,0,0,.78-.44.78-.44,4.98,4.28,9.22,9.14,14.1,13.42,5.39,4.57,11.06,10.37,18.46,10.92,10.53.44,19.36-7.76,25.92-15.35,2.39-2.83,4.65-5.83,6.63-8.97,0,0,.81.39.81.39h0Z"/>
  </g>
  <g>
    <circle class="cls-1" cx="243.51" cy="147.56" r="6.88"/>
    <path class="cls-1" d="M250.53,147.56c.23,7.55-7.02,11.1-12.23,5.21-4.93-5.23-2.34-13.47,5.21-13.69,4.68-.04,7.23,4.37,7.03,8.48h0ZM250.23,147.56c.05-3.41-3.84-5.36-6.73-5.28-2.98.02-5.5,2.24-6.06,5.28-.67,3.59,2.58,6.33,6.06,5.63,2.91-.39,6.79-2.11,6.73-5.63h0Z"/>
  </g>
  <g>
    <circle class="cls-1" cx="269.61" cy="147.56" r="6.88"/>
    <path class="cls-1" d="M276.64,147.56c.23,7.55-7.02,11.1-12.23,5.21-4.93-5.23-2.34-13.47,5.21-13.69,4.68-.04,7.23,4.37,7.03,8.48h0ZM276.34,147.56c.05-3.41-3.84-5.36-6.73-5.28-2.98.02-5.5,2.24-6.06,5.28-.67,3.59,2.58,6.33,6.06,5.63,2.91-.39,6.79-2.11,6.73-5.63h0Z"/>
  </g>
</svg>