<?xml version="1.0" encoding="UTF-8"?>
<svg id="Layer_1" data-name="Layer 1" xmlns="http://www.w3.org/2000/svg" viewBox="0 0 432 432">
  <defs>
    <style>
      .cls-1 {
        fill: #231f20;
      }

      .cls-2 {
        fill: #f08b59;
      }
    </style>
  </defs>
  <g>
    <path class="cls-2" d="M133.06,125.49s34.43-20.39,65.41,9.06c30.97,29.44,29.18,33.31,55.09,38.67,25.91,5.36,45.49,10.37,51.85,25,6.36,14.63,35.24,53.49-20.59,102.89-55.83,49.41-165.61-50.14-167.1-111.34s15.35-64.27,15.35-64.27Z"/>
    <path class="cls-1" d="M132.9,125.07c14.01-8.75,32.13-11.06,47.78-5.34,9.51,3.31,17.7,9.8,24.78,16.71,7.06,6.52,13.86,13.41,20.85,19.91,4.47,4.14,9.13,7.46,14.84,9.41,4.94,1.8,12.85,3.48,18.11,4.66,9.61,2.24,19.04,4.62,28.21,8.67,7.36,3.33,14.68,8.09,18.67,15.43,8.25,17.78,15.64,32.42,13.31,52.78-2.45,19.77-14.26,36.85-27.8,50.86-4.67,4.65-9.61,9.51-15.45,12.69-61.07,34.41-162.99-60.14-161.78-122.13.18-13.48,1.09-28.16,4.4-41.23,2.13-7.52,5.98-19.67,14.08-22.4h0ZM133.22,125.91c-7.06,3.38-9.46,15.25-10.86,22.32-2.05,12.93-2,27.26-1.37,40.34,1.3,26.58,20.94,53.71,38.62,72.61,26.58,27.96,74.01,62.74,113.68,44.24,5.52-2.55,10.4-6.82,14.94-10.82,9.29-8.51,17.74-18.2,23.15-29.66,8.68-17.95,7.08-36.97-2.01-54.42-2.09-4.09-4.62-8.64-6.75-12.7,0,0-.53-.95-.53-.95-.19-.31-.43-.59-.64-.88-7.59-10.28-22.57-13.15-34.48-16-9.49-2.21-19.34-3.31-28.6-6.65-9.79-3.27-17.31-11.03-24.32-18.15-6.64-6.83-13.34-13.87-20.18-20.38-16.6-15.6-40.12-18.11-60.65-8.92h0Z"/>
  </g>
  <path class="cls-1" d="M271.82,237.33c4.87-.46,8.65,5.29,5.63,9.59-2.11,3.33-7.52,3.66-10.02.62-3.49-3.87-.55-10.03,4.39-10.21h0ZM271.84,237.63c-5.94.59-5.42,9.26.56,9.03,5.97-.53,5.4-9.18-.56-9.03h0Z"/>
  <path class="cls-1" d="M291.14,229.19c-4.71-1.42-6.09-8.07-1.69-11,3.19-2.31,8.34-.62,9.54,3.14,1.81,4.88-3.2,9.53-7.85,7.86h0ZM291.24,228.9c5.74,1.65,8.47-6.59,2.82-8.6-5.74-1.72-8.42,6.53-2.82,8.6h0Z"/>
  <path class="cls-1" d="M285.01,254.24c4.87-.46,8.65,5.29,5.63,9.59-2.11,3.33-7.52,3.66-10.02.62-3.49-3.87-.55-10.03,4.39-10.21h0ZM285.03,254.54c-5.94.59-5.42,9.26.56,9.03,5.97-.53,5.4-9.18-.56-9.03h0Z"/>
  <g>
    <circle class="cls-1" cx="159.05" cy="165.95" r="5.64"/>
    <path class="cls-1" d="M164.83,165.59c.68,6.42-5.12,9.79-9.83,4.95-4.44-4.21-2.83-11.18,3.6-11.82,4.05-.25,6.2,3.37,6.23,6.87h0ZM164.53,165.6c-.18-2.77-3.38-3.89-5.73-3.69-2.31.18-4.15,1.93-4.56,4.33-.47,2.95,2.34,4.96,5.08,4.08,2.23-.54,5.44-1.86,5.2-4.72h0Z"/>
  </g>
  <g>
    <circle class="cls-1" cx="186.04" cy="164.26" r="5.64"/>
    <path class="cls-1" d="M191.82,163.9c.68,6.42-5.12,9.79-9.83,4.95-4.44-4.21-2.83-11.18,3.6-11.82,4.05-.25,6.2,3.37,6.23,6.87h0ZM191.52,163.92c-.18-2.77-3.38-3.89-5.73-3.69-2.31.18-4.15,1.93-4.56,4.33-.47,2.95,2.34,4.96,5.08,4.08,2.23-.54,5.44-1.86,5.2-4.72h0Z"/>
  </g>
  <g>
    <line class="cls-2" x1="131.91" y1="191.05" x2="222.51" y2="185.39"/>
    <path class="cls-1" d="M131.9,190.8c14.56-1.63,30.55-3.25,45.19-4.58,7.53-.71,15.04-1.78,22.62-1.91,7.53-.11,15.3-.09,22.79.83,0,0,.03.5.03.5-5.59,1.42-11.19,2.26-16.87,3.01-9.34,1.33-18.93,1.37-28.33,1.56-5.65.2-17.05.54-22.7.67-7.57.14-15.14.34-22.71.42l-.03-.5h0Z"/>
  </g>
</svg>