<?xml version="1.0" encoding="UTF-8"?>
<svg id="Layer_1" data-name="Layer 1" xmlns="http://www.w3.org/2000/svg" viewBox="0 0 432 432">
  <defs>
    <style>
      .cls-1 {
        fill: #231f20;
      }

      .cls-2 {
        fill: #3960ac;
      }
    </style>
  </defs>
  <g>
    <path class="cls-2" d="M141.21,245.95c-.91,42.99,41.46,78.13,84.07,87.12,3.06.65,5.51.8,6.86.87,42.32,2.37,83.09-17.76,63.63-88.82-1.27-4.62-3.39-8.96-6.05-12.96-5.42-8.16-26.71-26.06-9.22-59.18,5.6-10.6,7.08-22.93,3.45-34.33-5.25-16.48-20-33.72-60.3-24.15-70.32,16.71-77.63,55.08-82.14,124.4-.16,2.41-.26,4.77-.31,7.06Z"/>
    <path class="cls-1" d="M141.66,245.96c-.88,33.77,25.47,61.47,54.34,75.26,5.86,2.84,11.93,5.24,18.14,7.12,6.17,1.76,12.42,3.52,18.85,3.62,6.46.21,12.94-.02,19.27-1.04,12.46-1.88,24.82-6.69,33.41-16.12,13.13-14.34,13.75-35.4,10.46-53.67-.53-3.16-1.24-6.35-1.98-9.45,0,0-1.23-4.68-1.23-4.68-1.13-4.5-3.1-8.6-5.66-12.49-1.56-2.36-3.87-4.89-5.92-7.59-9.02-11.04-13.62-25.64-10.21-39.86,1.27-5.97,3.64-11.59,6.38-16.98,2.96-6.08,4.44-12.91,4.17-19.59-.38-9.45-4.28-19.03-11.21-25.52-.24-.26-.52-.49-.8-.7l-.84-.66-.83-.66-.42-.33-.46-.28c-5.4-3.7-11.82-5.32-18.61-5.78-12.36-.73-25.21,2.43-37.08,5.97-12.12,3.65-23.9,8.79-33.92,16.5-31.44,24.31-33,70.25-35.87,106.93h0ZM140.76,245.94c.78-19.8,1.77-39.59,4.99-59.19,6.87-42.37,29.68-63.64,70.23-75.01,6.88-1.9,14.2-3.56,21.32-4.3,2.17-.11,4.37-.29,6.54-.37,0,0,5.3.14,5.3.14,8.16.55,16.42,2.84,23.2,7.54.66.37,1.62,1.23,2.23,1.71,4.69,3.74,8.41,8.8,10.96,14.14,6.94,14.58,5.77,31.29-2.05,45.22-4.94,9.3-7.71,20.36-4.95,30.68,1.94,8.2,7.5,15.45,12.81,22.12,3.61,4.96,6.39,10.7,7.81,16.7,2.9,11.42,4.87,23.16,4.51,35.02-.85,31.47-19.81,51-50.75,55.03-6.69.91-13.44.98-20.11.6-6.77-.28-13.3-2.36-19.69-4.41-36.5-12.65-72.5-44.44-72.34-85.62h0Z"/>
  </g>
  <path class="cls-1" d="M200.4,178.55c5.58-10.45,13.05-20.52,23.75-26.21,14.63-7.51,29.41.26,37.6,13.18,3.26,5.01,5.86,10.51,7.64,16.2,0,0-.45.23-.45.23-1.27-1.54-2.41-3.13-3.56-4.7-3.44-4.59-6.97-9.13-10.97-13.22-.74-.65-2.3-2.26-3.01-2.88-1.79-1.52-3.38-2.84-5.37-4.18-9.97-6.84-21.47-2.94-30.03,4.38-5.9,4.88-10.93,10.94-15.17,17.45l-.44-.24h0Z"/>
  <path class="cls-1" d="M166.29,208.49c-.22,7.55-11.09,7.72-11.4,0,.32-7.71,11.17-7.54,11.4,0h0ZM166.09,208.49c-.21-6.07-9.04-6.09-9.2,0,.17,6.09,8.99,6.07,9.2,0h0Z"/>
  <path class="cls-1" d="M183.34,189.43c-.22,7.55-11.09,7.72-11.4,0,.32-7.71,11.17-7.54,11.4,0h0ZM183.14,189.43c-.21-6.07-9.04-6.09-9.2,0,.17,6.09,8.99,6.07,9.2,0h0Z"/>
  <path class="cls-1" d="M257.94,266.9c-.01,5.23-7.39,5.38-7.6,0,.22-5.36,7.58-5.21,7.6,0h0ZM257.64,266.9c-.13-2.85-4.27-2.83-4.3,0,.03,2.83,4.17,2.85,4.3,0h0Z"/>
  <path class="cls-1" d="M243.74,291.64c1.71-4.61,8.43-5.57,11.08-1,2.11,3.33.09,8.37-3.72,9.33-4.99,1.5-9.31-3.79-7.36-8.33h0ZM244.02,291.75c-2,5.63,6.05,8.86,8.41,3.35,2.08-5.62-5.99-8.81-8.41-3.35h0Z"/>
  <path class="cls-1" d="M267.11,281.35c.15,4.89-5.82,8.31-9.93,5.03-3.19-2.31-3.18-7.74,0-10.04,4.08-3.24,10.05.08,9.92,5.02h0ZM266.81,281.35c-.22-5.97-8.9-5.99-9.05,0,.15,5.99,8.83,5.97,9.05,0h0Z"/>
  <g>
    <circle class="cls-1" cx="228.52" cy="137.74" r="6.37"/>
    <path class="cls-1" d="M235.04,137.74c.25,7.1-6.49,10.43-11.37,4.85-4.62-4.91-2.24-12.61,4.85-12.82,4.45,0,6.7,4.09,6.52,7.98h0ZM234.74,137.74c.04-3.14-3.6-4.86-6.22-4.77-2.71.02-4.99,2.01-5.55,4.77-.51,2.22,1.09,4.81,3.43,5.12,3.24.36,8.29-1.18,8.34-5.12h0Z"/>
  </g>
  <g>
    <circle class="cls-1" cx="256.56" cy="138.74" r="6.37"/>
    <path class="cls-1" d="M263.08,138.74c.25,7.1-6.49,10.43-11.37,4.85-4.62-4.91-2.24-12.61,4.85-12.82,4.45,0,6.7,4.09,6.52,7.98h0ZM262.78,138.74c.04-3.14-3.6-4.86-6.22-4.77-2.71.02-4.99,2.01-5.55,4.77-.51,2.22,1.09,4.81,3.43,5.12,3.24.36,8.29-1.18,8.34-5.12h0Z"/>
  </g>
</svg>